<mxfile host="app.diagrams.net" agent="Mozilla/5.0 (Windows NT 10.0; Win64; x64; rv:137.0) Gecko/20100101 Firefox/137.0" version="26.2.13">
  <diagram name="FE-PV" id="baLiT41wjzlTVZv35vuG">
    <mxGraphModel grid="1" page="1" gridSize="10" guides="1" tooltips="1" connect="1" arrows="1" fold="1" pageScale="1" pageWidth="3300" pageHeight="4681" math="0" shadow="0">
      <root>
        <mxCell id="0" />
        <mxCell id="1" parent="0" />
        <mxCell id="iREojE_EcFUT60Zf4l-V-92" value="Assess solar potential for PV installation - &lt;a href=&quot;https://docs.google.com/document/d/17AJEKZw4RBO2aQTBiLZaIjXHWimf1JUN/edit?amp;ouid=100401313820260785715&amp;amp;amp;rtpof=true&amp;amp;amp;sd=true#heading=h.gjdgxs&quot;&gt;FE-PV&lt;/a&gt;" style="swimlane;html=1;childLayout=stackLayout;resizeParent=1;resizeParentMax=0;horizontal=0;startSize=20;horizontalStack=0;whiteSpace=wrap;fillColor=#e51400;fontColor=#ffffff;strokeColor=#B20000;" vertex="1" parent="1">
          <mxGeometry x="53" y="-2240" width="2500" height="2490" as="geometry">
            <mxRectangle x="99" y="-2240" width="40" height="50" as="alternateBounds" />
          </mxGeometry>
        </mxCell>
        <mxCell id="iREojE_EcFUT60Zf4l-V-94" value="&amp;nbsp;Identify the irradiation value on the city surface (per pixel)" style="swimlane;html=1;startSize=58;horizontal=0;" vertex="1" parent="iREojE_EcFUT60Zf4l-V-92">
          <mxGeometry x="20" width="2480" height="540" as="geometry">
            <mxRectangle x="20" width="1133" height="30" as="alternateBounds" />
          </mxGeometry>
        </mxCell>
        <mxCell id="8a_DFh1L9sIuB4qiLg9Q-2" value="" style="points=[[0.145,0.145,0],[0.5,0,0],[0.855,0.145,0],[1,0.5,0],[0.855,0.855,0],[0.5,1,0],[0.145,0.855,0],[0,0.5,0]];shape=mxgraph.bpmn.event;html=1;verticalLabelPosition=bottom;labelBackgroundColor=#ffffff;verticalAlign=top;align=center;perimeter=ellipsePerimeter;outlineConnect=0;aspect=fixed;outline=standard;symbol=general;" vertex="1" parent="iREojE_EcFUT60Zf4l-V-94">
          <mxGeometry x="107" y="270" width="30" height="30" as="geometry" />
        </mxCell>
        <mxCell id="iREojE_EcFUT60Zf4l-V-95" value="&lt;p&gt;Identify the average irradiation value per homogeneous areas on roof pitches or areas potentially usable for photovoltaic panels installations (unoccupied areas (parkings, stocking areas, plane roofs, etc.)&lt;/p&gt;" style="swimlane;html=1;startSize=58;horizontal=0;whiteSpace=wrap;" vertex="1" parent="iREojE_EcFUT60Zf4l-V-92">
          <mxGeometry x="20" y="540" width="2480" height="420" as="geometry" />
        </mxCell>
        <UserObject label="&lt;div style=&quot;&quot;&gt;&lt;div style=&quot;&quot;&gt;&lt;span style=&quot;background-color: transparent; font-size: 8px;&quot;&gt;&lt;font face=&quot;Arial&quot;&gt;PUG: flight path&lt;/font&gt;&lt;/span&gt;&lt;/div&gt;&lt;div style=&quot;font-size: 8px;&quot;&gt;&lt;a href=&quot;https://dati.comune.fe.it/dataset/v2-69&quot; style=&quot;background-color: initial; font-family: Arial;&quot;&gt;link to dataset metadata&lt;/a&gt;&lt;/div&gt;&lt;/div&gt;" id="AYdhGK95s8Jrub2KOEHg-2">
          <mxCell style="shape=mxgraph.bpmn.data;labelPosition=center;verticalLabelPosition=bottom;align=center;verticalAlign=top;size=15;html=1;" vertex="1" parent="iREojE_EcFUT60Zf4l-V-95">
            <mxGeometry x="717" y="110" width="30" height="34" as="geometry" />
          </mxCell>
        </UserObject>
        <UserObject label="&lt;div style=&quot;&quot;&gt;&lt;div style=&quot;&quot;&gt;&lt;span style=&quot;background-color: transparent; font-size: 8px;&quot;&gt;&lt;font face=&quot;Arial&quot;&gt;PUG: indirect constraint&amp;nbsp;&lt;/font&gt;&lt;/span&gt;&lt;/div&gt;&lt;div style=&quot;&quot;&gt;&lt;span style=&quot;background-color: transparent; font-size: 8px;&quot;&gt;&lt;font face=&quot;Arial&quot;&gt;(Cultural Heritage)&lt;/font&gt;&lt;/span&gt;&lt;/div&gt;&lt;div style=&quot;font-size: 8px;&quot;&gt;&lt;a style=&quot;background-color: initial; font-family: Arial;&quot; href=&quot;https://usage.geocat.live/catalogue/srv/eng/catalog.search#/metadata/b42ea803-b355-478e-99ed-b2594618cc89&quot;&gt;link to dataset metadata&lt;/a&gt;&lt;/div&gt;&lt;/div&gt;" id="AYdhGK95s8Jrub2KOEHg-4">
          <mxCell style="shape=mxgraph.bpmn.data;labelPosition=center;verticalLabelPosition=bottom;align=center;verticalAlign=top;size=15;html=1;" vertex="1" parent="iREojE_EcFUT60Zf4l-V-95">
            <mxGeometry x="809.4" y="110" width="30" height="34" as="geometry" />
          </mxCell>
        </UserObject>
        <mxCell id="AYdhGK95s8Jrub2KOEHg-6" value="" style="endArrow=classic;html=1;rounded=0;entryX=0.266;entryY=0.01;entryDx=0;entryDy=0;entryPerimeter=0;exitX=0.5;exitY=1;exitDx=0;exitDy=0;exitPerimeter=0;dashed=1;" edge="1" parent="iREojE_EcFUT60Zf4l-V-95">
          <mxGeometry width="50" height="50" relative="1" as="geometry">
            <mxPoint x="731.76" y="144" as="sourcePoint" />
            <mxPoint x="731.76" y="220" as="targetPoint" />
          </mxGeometry>
        </mxCell>
        <UserObject label="&lt;div style=&quot;&quot;&gt;&lt;div style=&quot;&quot;&gt;&lt;span style=&quot;background-color: transparent; font-size: 8px;&quot;&gt;&lt;font face=&quot;Arial&quot;&gt;PUG: framework knowledge -&lt;/font&gt;&lt;/span&gt;&lt;/div&gt;&lt;div style=&quot;&quot;&gt;&lt;span style=&quot;background-color: transparent; font-size: 8px;&quot;&gt;&lt;font face=&quot;Arial&quot;&gt;&amp;nbsp;public parking lots&lt;/font&gt;&lt;/span&gt;&lt;/div&gt;&lt;div style=&quot;font-size: 8px;&quot;&gt;&lt;a style=&quot;background-color: initial; font-family: Arial;&quot; href=&quot;https://usage.geocat.live/catalogue/srv/ita/catalog.search#/metadata/9116da0a-e521-4c19-adfc-8bcdb5716a3a&quot;&gt;link to dataset metadata&lt;/a&gt;&lt;/div&gt;&lt;/div&gt;" id="3B00jg4IUKN6mD5agiQT-120">
          <mxCell style="shape=mxgraph.bpmn.data;labelPosition=center;verticalLabelPosition=bottom;align=center;verticalAlign=top;size=15;html=1;" vertex="1" parent="iREojE_EcFUT60Zf4l-V-95">
            <mxGeometry x="617" y="110" width="30" height="34" as="geometry" />
          </mxCell>
        </UserObject>
        <mxCell id="AYdhGK95s8Jrub2KOEHg-5" value="" style="endArrow=classic;html=1;rounded=0;entryX=0.266;entryY=0.01;entryDx=0;entryDy=0;entryPerimeter=0;exitX=0.5;exitY=1;exitDx=0;exitDy=0;exitPerimeter=0;dashed=1;" edge="1" parent="iREojE_EcFUT60Zf4l-V-95" source="3B00jg4IUKN6mD5agiQT-120">
          <mxGeometry width="50" height="50" relative="1" as="geometry">
            <mxPoint x="634.6" y="180" as="sourcePoint" />
            <mxPoint x="631.332" y="219.5999999999999" as="targetPoint" />
          </mxGeometry>
        </mxCell>
        <mxCell id="iREojE_EcFUT60Zf4l-V-93" value="&lt;div&gt;Exclude not applicable areas&lt;/div&gt;" style="swimlane;html=1;startSize=58;horizontal=0;autosize=0;fixedWidth=0;" vertex="1" parent="iREojE_EcFUT60Zf4l-V-92">
          <mxGeometry x="20" y="960" width="2480" height="790" as="geometry">
            <mxRectangle x="20" y="960" width="2198" height="58" as="alternateBounds" />
          </mxGeometry>
        </mxCell>
        <UserObject label="&lt;div style=&quot;font-size: 8px;&quot;&gt;&lt;div style=&quot;&quot;&gt;&lt;span style=&quot;background-color: initial;&quot;&gt;&lt;font style=&quot;font-size: 8px;&quot; face=&quot;Arial&quot;&gt;Perimeter of the historic center of Ferrara&lt;/font&gt;&lt;/span&gt;&lt;/div&gt;&lt;div style=&quot;&quot;&gt;&lt;span style=&quot;font-family: Arial; background-color: initial;&quot;&gt;&amp;nbsp;&lt;/span&gt;&lt;a style=&quot;font-family: Arial; background-color: initial;&quot; href=&quot;https://usage.geocat.live/catalogue/srv/ita/catalog.search#/metadata/2518f252-b150-4c40-995b-75bcdffa4977&quot;&gt;link to dataset metadata&lt;/a&gt;&lt;br&gt;&lt;/div&gt;&lt;/div&gt;" id="3B00jg4IUKN6mD5agiQT-167">
          <mxCell style="shape=mxgraph.bpmn.data;labelPosition=center;verticalLabelPosition=bottom;align=center;verticalAlign=top;size=13;html=1;" vertex="1" parent="iREojE_EcFUT60Zf4l-V-93">
            <mxGeometry x="1154" y="500" width="30" height="34" as="geometry" />
          </mxCell>
        </UserObject>
        <mxCell id="3B00jg4IUKN6mD5agiQT-168" style="edgeStyle=orthogonalEdgeStyle;rounded=0;orthogonalLoop=1;jettySize=auto;html=1;exitX=0.5;exitY=1;exitDx=0;exitDy=0;exitPerimeter=0;" edge="1" parent="iREojE_EcFUT60Zf4l-V-93" source="3B00jg4IUKN6mD5agiQT-167" target="3B00jg4IUKN6mD5agiQT-167">
          <mxGeometry relative="1" as="geometry" />
        </mxCell>
        <UserObject label="&lt;div style=&quot;&quot;&gt;&lt;div style=&quot;&quot;&gt;&lt;font face=&quot;Arial&quot;&gt;&lt;span style=&quot;font-size: 8px;&quot;&gt;Cultural Heritage&lt;/span&gt;&lt;/font&gt;&lt;/div&gt;&lt;div style=&quot;font-size: 8px;&quot;&gt;&lt;font face=&quot;Arial&quot; style=&quot;font-size: 8px;&quot;&gt;&amp;nbsp;&lt;a href=&quot;https://usage.geocat.live/catalogue/srv/ita/catalog.search#/metadata/3318654a-3623-4a94-8f3c-84e2ed3a0fdb&quot;&gt;link to dataset metadata&lt;/a&gt;&lt;/font&gt;&lt;/div&gt;&lt;/div&gt;" id="3B00jg4IUKN6mD5agiQT-155">
          <mxCell style="shape=mxgraph.bpmn.data;labelPosition=center;verticalLabelPosition=bottom;align=center;verticalAlign=top;size=11;html=1;strokeColor=default;fontFamily=Helvetica;fontSize=12;fontColor=default;fillColor=default;" vertex="1" parent="iREojE_EcFUT60Zf4l-V-93">
            <mxGeometry x="1258" y="470" width="30" height="33" as="geometry" />
          </mxCell>
        </UserObject>
        <mxCell id="3B00jg4IUKN6mD5agiQT-121" value="&lt;div style=&quot;&quot;&gt;&lt;h6 style=&quot;&quot;&gt;&lt;span style=&quot;font-weight: normal; font-size: 6px;&quot;&gt;Vectorial layer containing the roof pitches and other potential candidate areas in the city(possibly split in multiple sub-areas having homogeneous irradiation values) with associated received irradiation (KWh) per year, per m2? In semantics: plane surfaces should be marked somehow&lt;/span&gt;&lt;/h6&gt;&lt;/div&gt;" style="text;html=1;strokeColor=none;fillColor=#d5e8d4;align=center;verticalAlign=middle;rounded=0;whiteSpace=wrap;spacing=2;fontSize=6;labelBackgroundColor=none;" vertex="1" parent="iREojE_EcFUT60Zf4l-V-93">
          <mxGeometry x="148" y="360" width="127" height="49" as="geometry" />
        </mxCell>
        <UserObject label="&lt;div style=&quot;font-size: 8px;&quot;&gt;&lt;div&gt;&lt;span style=&quot;font-family: Arial;&quot;&gt;Parking&amp;nbsp;&lt;/span&gt;&lt;/div&gt;&lt;div&gt;&lt;span style=&quot;font-family: Arial;&quot;&gt;lot&amp;nbsp; irradiation&amp;nbsp;&lt;/span&gt;&lt;br&gt;&lt;/div&gt;&lt;div&gt;&lt;a href=&quot;https://usage.geocat.live/catalogue/srv/eng/catalog.search#/metadata/1df99f59-c41c-4326-8998-2a82d28ad1c3&quot; style=&quot;background-color: initial; font-family: Arial;&quot;&gt;link to dataset metadata&lt;/a&gt;&lt;/div&gt;&lt;/div&gt;" id="3B00jg4IUKN6mD5agiQT-129">
          <mxCell style="shape=mxgraph.bpmn.data;labelPosition=center;verticalLabelPosition=bottom;align=center;verticalAlign=top;size=15;html=1;strokeColor=#9673a6;fontFamily=Helvetica;fontSize=12;fontColor=default;fillColor=#e1d5e7;" vertex="1" parent="iREojE_EcFUT60Zf4l-V-93">
            <mxGeometry x="687" y="50" width="30" height="34" as="geometry" />
          </mxCell>
        </UserObject>
        <mxCell id="iREojE_EcFUT60Zf4l-V-97" value="&lt;div&gt;Manual validation of exception cases (e.g. plane roofs in historical centres)&lt;/div&gt;&lt;div&gt;&lt;br&gt;&lt;/div&gt;" style="swimlane;html=1;startSize=58;horizontal=0;whiteSpace=wrap;" vertex="1" parent="iREojE_EcFUT60Zf4l-V-92">
          <mxGeometry x="20" y="1750" width="2480" height="240" as="geometry" />
        </mxCell>
        <mxCell id="iREojE_EcFUT60Zf4l-V-156" value="Share Decision-REady Information&amp;nbsp;&lt;div&gt;with decision makers&lt;/div&gt;" style="swimlane;html=1;startSize=58;horizontal=0;whiteSpace=wrap;" vertex="1" parent="iREojE_EcFUT60Zf4l-V-92">
          <mxGeometry x="20" y="1990" width="2480" height="500" as="geometry" />
        </mxCell>
        <mxCell id="3B00jg4IUKN6mD5agiQT-205" value="&lt;div&gt;Communicate to citizens in attractive way&lt;/div&gt;" style="swimlane;html=1;startSize=58;horizontal=0;whiteSpace=wrap;" vertex="1" parent="iREojE_EcFUT60Zf4l-V-156">
          <mxGeometry y="390" width="2480" height="110" as="geometry" />
        </mxCell>
        <mxCell id="3B00jg4IUKN6mD5agiQT-186" value="&lt;h6 style=&quot;line-height: 90%; margin-top: 10.7332px; margin-bottom: 5.7332px; margin-left: 0px;&quot;&gt;&lt;span style=&quot;font-size: 8px; font-weight: 400;&quot;&gt;webgis for visualization and interaction with citizens&amp;nbsp;&lt;/span&gt;GeoNext&lt;span style=&quot;font-size: 12px;&quot;&gt;&amp;nbsp;&lt;/span&gt;&lt;font color=&quot;#ff3333&quot; style=&quot;background-color: initial; font-weight: normal; font-size: 8px;&quot;&gt;&lt;a href=&quot;https://usage.geocat.live/catalogue/srv/eng/catalog.search#/metadata/f4fe374e-0a56-4910-9f3a-e8b7519c373e&quot;&gt;Link to tool metadata&lt;/a&gt;&amp;nbsp;&lt;/font&gt;&lt;/h6&gt;&lt;h6 style=&quot;line-height: 90%; margin-top: 5.7332px; padding-left: 0px; margin-bottom: 5.7332px; margin-right: 0px;&quot;&gt;&lt;font color=&quot;#ff3333&quot; style=&quot;background-color: initial; font-weight: normal; font-size: 8px;&quot;&gt;&lt;a href=&quot;https://sit.comune.fe.it/gnx/Accesso_diretto_usage_fast.html&quot;&gt;Link to Geonext map&lt;/a&gt;&lt;/font&gt;&lt;/h6&gt;&lt;h6 style=&quot;line-height: 90%; margin-top: 5.7332px; padding-left: 0px; margin-bottom: 5.7332px; margin-right: 0px;&quot;&gt;&lt;a style=&quot;font-weight: normal;&quot; href=&quot;https://sit.comune.fe.it/allegati/mappe/usage/10_potenziale_di_irraggiamento_solare_edifici.html&quot;&gt;Link to embeddable map&lt;/a&gt;&lt;/h6&gt;&lt;p&gt;&lt;/p&gt;" style="points=[[0.25,0,0],[0.5,0,0],[0.75,0,0],[1,0.25,0],[1,0.5,0],[1,0.75,0],[0.75,1,0],[0.5,1,0],[0.25,1,0],[0,0.75,0],[0,0.5,0],[0,0.25,0]];shape=mxgraph.bpmn.task;whiteSpace=wrap;rectStyle=rounded;size=10;html=1;container=1;expand=0;collapsible=0;taskMarker=abstract;fillColor=#ff9129;" vertex="1" parent="3B00jg4IUKN6mD5agiQT-205">
          <mxGeometry x="2099" y="30" width="191" height="50" as="geometry" />
        </mxCell>
        <mxCell id="3B00jg4IUKN6mD5agiQT-187" value="" style="points=[[0.145,0.145,0],[0.5,0,0],[0.855,0.145,0],[1,0.5,0],[0.855,0.855,0],[0.5,1,0],[0.145,0.855,0],[0,0.5,0]];shape=mxgraph.bpmn.event;html=1;verticalLabelPosition=bottom;labelBackgroundColor=#ffffff;verticalAlign=top;align=center;perimeter=ellipsePerimeter;outlineConnect=0;aspect=fixed;outline=end;symbol=terminate2;" vertex="1" parent="3B00jg4IUKN6mD5agiQT-205">
          <mxGeometry x="2349" y="30" width="30" height="30" as="geometry" />
        </mxCell>
        <mxCell id="3B00jg4IUKN6mD5agiQT-185" style="edgeStyle=orthogonalEdgeStyle;rounded=0;orthogonalLoop=1;jettySize=auto;html=1;" edge="1" parent="3B00jg4IUKN6mD5agiQT-205" source="3B00jg4IUKN6mD5agiQT-186" target="3B00jg4IUKN6mD5agiQT-187">
          <mxGeometry relative="1" as="geometry" />
        </mxCell>
        <mxCell id="3B00jg4IUKN6mD5agiQT-184" value="&lt;h6 style=&quot;line-height: 90%; font-size: 8px;&quot;&gt;&lt;span style=&quot;background-color: initial; font-weight: normal;&quot;&gt;Share Decision Ready Information with decision makers with Gis viewers&amp;nbsp;&lt;/span&gt;&lt;span style=&quot;background-color: initial; font-weight: normal;&quot;&gt;&amp;nbsp;as &lt;/span&gt;&lt;span style=&quot;background-color: initial;&quot;&gt;Geonext&lt;/span&gt;&lt;span style=&quot;background-color: initial; font-weight: normal;&quot;&gt;&amp;nbsp;&lt;/span&gt;&lt;font style=&quot;background-color: initial; font-weight: normal; font-size: 8px;&quot; color=&quot;#ff3333&quot;&gt;&lt;a href=&quot;https://usage.geocat.live/catalogue/srv/eng/catalog.search#/metadata/f4fe374e-0a56-4910-9f3a-e8b7519c373e&quot;&gt;Link to tool metadata&lt;/a&gt;&amp;nbsp;&lt;/font&gt;&lt;font style=&quot;background-color: initial; font-weight: normal; font-size: 8px;&quot;&gt;or web data stories (e.g. &lt;a href=&quot;https://www.comune.ferrara.it/it/geoportale/dati/storie-di-dati&quot;&gt;stories&lt;/a&gt;) explain limitation of the reported production values (i.e. cloudy conditions, incliantion of installe pannel, effective installable surface on the roof (cimnies, roof boundaries)&lt;/font&gt;&lt;/h6&gt;&lt;p&gt;&lt;/p&gt;" style="points=[[0.25,0,0],[0.5,0,0],[0.75,0,0],[1,0.25,0],[1,0.5,0],[1,0.75,0],[0.75,1,0],[0.5,1,0],[0.25,1,0],[0,0.75,0],[0,0.5,0],[0,0.25,0]];shape=mxgraph.bpmn.task;whiteSpace=wrap;rectStyle=rounded;size=10;html=1;container=1;expand=0;collapsible=0;taskMarker=abstract;fillColor=#ff9129;" vertex="1" parent="iREojE_EcFUT60Zf4l-V-156">
          <mxGeometry x="1873" y="232" width="205" height="53" as="geometry" />
        </mxCell>
        <mxCell id="3B00jg4IUKN6mD5agiQT-197" style="edgeStyle=orthogonalEdgeStyle;rounded=0;orthogonalLoop=1;jettySize=auto;html=1;entryX=0.5;entryY=0;entryDx=0;entryDy=0;entryPerimeter=0;" edge="1" parent="iREojE_EcFUT60Zf4l-V-156" source="3B00jg4IUKN6mD5agiQT-184" target="3B00jg4IUKN6mD5agiQT-186">
          <mxGeometry relative="1" as="geometry" />
        </mxCell>
        <mxCell id="MxaMl1WZHZWP-qelYsli-3" value="" style="edgeStyle=segmentEdgeStyle;endArrow=classic;html=1;curved=0;rounded=0;endSize=8;startSize=8;exitX=0.5;exitY=1;exitDx=0;exitDy=0;exitPerimeter=0;entryX=0;entryY=0.75;entryDx=0;entryDy=0;entryPerimeter=0;dashed=1;" edge="1" parent="iREojE_EcFUT60Zf4l-V-92" source="3B00jg4IUKN6mD5agiQT-129" target="3B00jg4IUKN6mD5agiQT-184">
          <mxGeometry width="50" height="50" relative="1" as="geometry">
            <mxPoint x="787" y="2107.6470588235293" as="sourcePoint" />
            <mxPoint x="1427" y="2630" as="targetPoint" />
            <Array as="points">
              <mxPoint x="717" y="1044" />
              <mxPoint x="717" y="2260" />
              <mxPoint x="1847" y="2260" />
              <mxPoint x="1847" y="2262" />
            </Array>
          </mxGeometry>
        </mxCell>
        <mxCell id="3B00jg4IUKN6mD5agiQT-101" style="edgeStyle=orthogonalEdgeStyle;rounded=0;orthogonalLoop=1;jettySize=auto;html=1;" edge="1" parent="1">
          <mxGeometry relative="1" as="geometry">
            <mxPoint x="240" y="-1955" as="targetPoint" />
            <mxPoint x="210" y="-1955" as="sourcePoint" />
          </mxGeometry>
        </mxCell>
        <mxCell id="3B00jg4IUKN6mD5agiQT-102" value="&lt;div style=&quot;line-height: 70%;&quot;&gt;&lt;div&gt;&lt;font face=&quot;Arial&quot;&gt;&lt;span style=&quot;font-size: 8px;&quot;&gt;Calculate the irradiation values on the surfaces (from a nadir point of view) in the city [and calculate the received irradiation per year]&lt;/span&gt;&lt;/font&gt;&lt;/div&gt;&lt;div style=&quot;line-height: 70%;&quot;&gt;&lt;font face=&quot;Arial&quot;&gt;&lt;span style=&quot;font-size: 8px;&quot;&gt;&lt;a href=&quot;https://usage.geocat.live/catalogue/srv/eng/catalog.search#/metadata/85709f88-be74-46a8-977a-f15818d18739&quot;&gt;&lt;b&gt;Solar Irradiation Calculation&lt;/b&gt;&lt;/a&gt;&lt;/span&gt;&lt;/font&gt;&lt;/div&gt;&lt;/div&gt;" style="points=[[0.25,0,0],[0.5,0,0],[0.75,0,0],[1,0.25,0],[1,0.5,0],[1,0.75,0],[0.75,1,0],[0.5,1,0],[0.25,1,0],[0,0.75,0],[0,0.5,0],[0,0.25,0]];shape=mxgraph.bpmn.task;whiteSpace=wrap;rectStyle=rounded;size=10;html=1;container=1;expand=0;collapsible=0;taskMarker=abstract;fillColor=#ff9b29;strokeColor=#d79b00;gradientColor=none;" vertex="1" parent="1">
          <mxGeometry x="308" y="-2065.5" width="169" height="47.5" as="geometry" />
        </mxCell>
        <UserObject label="&lt;div style=&quot;line-height: 100%; font-size: 8px;&quot;&gt;&lt;div style=&quot;line-height: 100%;&quot;&gt;Linke-turbidity factor map&amp;nbsp;&lt;/div&gt;&lt;div style=&quot;line-height: 100%;&quot;&gt;&lt;span style=&quot;background-color: initial;&quot;&gt;&amp;nbsp;&lt;/span&gt;&lt;a style=&quot;background-color: initial;&quot; href=&quot;https://www.soda-pro.com/help/general-knowledge/linke-turbidity-factor?p_l_back_url=https%3A%2F%2Fwww.soda-pro.com%2Fhome%3Fp_p_id%3Dcom_liferay_portal_search_web_portlet_SearchPortlet%26p_p_lifecycle%3D0%26p_p_state%3Dmaximized%26p_p_mode%3Dview%26_com_liferay_portal_search_web_portlet_SearchPortlet_redirect%3Dhttps%253A%252F%252Fwww.soda-pro.com%252Fhome%253Fp_p_id%253Dcom_liferay_portal_search_web_portlet_SearchPortlet%2526p_p_lifecycle%253D0%2526p_p_state%253Dnormal%2526p_p_mode%253Dview%26_com_liferay_portal_search_web_portlet_SearchPortlet_mvcPath%3D%252Fsearch.jsp%26_com_liferay_portal_search_web_portlet_SearchPortlet_keywords%3Dlinke%26_com_liferay_portal_search_web_portlet_SearchPortlet_formDate%3D1697446902332%26_com_liferay_portal_search_web_portlet_SearchPortlet_scope%3Dthis-site&quot;&gt;link to dataset metadata&lt;/a&gt;&lt;/div&gt;&lt;/div&gt;" id="3B00jg4IUKN6mD5agiQT-103">
          <mxCell style="shape=mxgraph.bpmn.data;labelPosition=center;verticalLabelPosition=bottom;align=center;verticalAlign=top;size=15;html=1;movable=1;resizable=1;rotatable=1;deletable=1;editable=1;locked=0;connectable=1;" vertex="1" parent="1">
            <mxGeometry x="320" y="-2148" width="30" height="30" as="geometry" />
          </mxCell>
        </UserObject>
        <UserObject label="&lt;div style=&quot;line-height: 100%; font-size: 8px;&quot;&gt;&lt;div style=&quot;line-height: 100%;&quot;&gt;DSM - 1m res&lt;/div&gt;&lt;div style=&quot;line-height: 100%;&quot;&gt;&amp;nbsp;(&lt;a href=&quot;https://usage.geocat.live/catalogue/srv/eng/catalog.search#/metadata/bada953d-51d0-468f-81e2-8d22d80c6df0&quot;&gt;link to dataset metadata&lt;/a&gt;)&lt;/div&gt;&lt;/div&gt;" id="3B00jg4IUKN6mD5agiQT-104">
          <mxCell style="shape=mxgraph.bpmn.data;labelPosition=center;verticalLabelPosition=bottom;align=center;verticalAlign=top;size=15;html=1;" vertex="1" parent="1">
            <mxGeometry x="427" y="-2148" width="30" height="30" as="geometry" />
          </mxCell>
        </UserObject>
        <mxCell id="3B00jg4IUKN6mD5agiQT-105" style="edgeStyle=orthogonalEdgeStyle;rounded=0;orthogonalLoop=1;jettySize=auto;html=1;entryX=0.75;entryY=0;entryDx=0;entryDy=0;entryPerimeter=0;dashed=1;" edge="1" parent="1" source="3B00jg4IUKN6mD5agiQT-104" target="3B00jg4IUKN6mD5agiQT-102">
          <mxGeometry relative="1" as="geometry" />
        </mxCell>
        <mxCell id="3B00jg4IUKN6mD5agiQT-106" style="edgeStyle=orthogonalEdgeStyle;rounded=0;orthogonalLoop=1;jettySize=auto;html=1;entryX=0.25;entryY=0;entryDx=0;entryDy=0;entryPerimeter=0;dashed=1;" edge="1" parent="1" source="3B00jg4IUKN6mD5agiQT-103" target="3B00jg4IUKN6mD5agiQT-102">
          <mxGeometry relative="1" as="geometry" />
        </mxCell>
        <mxCell id="3B00jg4IUKN6mD5agiQT-107" style="edgeStyle=orthogonalEdgeStyle;rounded=0;orthogonalLoop=1;jettySize=auto;html=1;entryX=0.233;entryY=0.035;entryDx=0;entryDy=0;entryPerimeter=0;dashed=1;" edge="1" parent="1" source="3B00jg4IUKN6mD5agiQT-102" target="3B00jg4IUKN6mD5agiQT-115">
          <mxGeometry relative="1" as="geometry">
            <mxPoint x="392" y="-1989" as="targetPoint" />
          </mxGeometry>
        </mxCell>
        <mxCell id="3B00jg4IUKN6mD5agiQT-108" value="&lt;h6 style=&quot;line-height: 100%;&quot;&gt;&lt;span style=&quot;background-color: initial; font-size: 8px;&quot;&gt;&lt;font style=&quot;&quot; face=&quot;Arial&quot;&gt;Roof Segmentation&lt;br&gt;&lt;/font&gt;&lt;/span&gt;&lt;font style=&quot;&quot; face=&quot;Arial&quot;&gt;&lt;span style=&quot;font-size: 8.04px; font-weight: normal;&quot;&gt;The tool identifies, segments and classifies roofs falling within the specified Area of Interest, basing on surface aspect computed from DSM and using footprints to define roof outer limits. Segmented roof parts are labelled with respect to 4 aspect classes, corresponding to NE, SE, SW and NW.&lt;/span&gt;&lt;br&gt;&lt;/font&gt;&lt;font color=&quot;#ff3333&quot; style=&quot;font-size: 8px;&quot; face=&quot;Arial&quot;&gt;&lt;b&gt;&lt;a href=&quot;https://usage.geocat.live/catalogue/srv/eng/catalog.search#/metadata/15b32427-5162-46a0-b09c-2a3cd44efe00&quot;&gt;Link to tool metadata&lt;/a&gt;&lt;/b&gt;&lt;/font&gt;&lt;/h6&gt;" style="points=[[0.25,0,0],[0.5,0,0],[0.75,0,0],[1,0.25,0],[1,0.5,0],[1,0.75,0],[0.75,1,0],[0.5,1,0],[0.25,1,0],[0,0.75,0],[0,0.5,0],[0,0.25,0]];shape=mxgraph.bpmn.task;whiteSpace=wrap;rectStyle=rounded;size=10;html=1;container=1;expand=0;collapsible=0;taskMarker=abstract;fillColor=#ff9b29;fontColor=#000000;strokeColor=#BD7000;" vertex="1" parent="1">
          <mxGeometry x="295" y="-1811" width="198.5" height="68" as="geometry" />
        </mxCell>
        <mxCell id="3B00jg4IUKN6mD5agiQT-109" value="" style="points=[[0.25,0.25,0],[0.5,0,0],[0.75,0.25,0],[1,0.5,0],[0.75,0.75,0],[0.5,1,0],[0.25,0.75,0],[0,0.5,0]];shape=mxgraph.bpmn.gateway2;html=1;verticalLabelPosition=bottom;labelBackgroundColor=#ffffff;verticalAlign=top;align=center;perimeter=rhombusPerimeter;outlineConnect=0;outline=none;symbol=none;gwType=parallel;" vertex="1" parent="1">
          <mxGeometry x="240" y="-1980" width="50" height="50" as="geometry" />
        </mxCell>
        <mxCell id="3B00jg4IUKN6mD5agiQT-110" style="edgeStyle=orthogonalEdgeStyle;rounded=0;orthogonalLoop=1;jettySize=auto;html=1;entryX=0;entryY=0.5;entryDx=0;entryDy=0;entryPerimeter=0;exitX=0.5;exitY=1;exitDx=0;exitDy=0;exitPerimeter=0;" edge="1" parent="1" source="3B00jg4IUKN6mD5agiQT-109" target="3B00jg4IUKN6mD5agiQT-108">
          <mxGeometry relative="1" as="geometry" />
        </mxCell>
        <UserObject label="&lt;div style=&quot;font-size: 8px;&quot;&gt;&lt;div&gt;&lt;font style=&quot;font-size: 8px;&quot; face=&quot;Arial&quot;&gt;&lt;span style=&quot;&quot;&gt;Building footprints&lt;/span&gt;&lt;/font&gt;&lt;/div&gt;&lt;div&gt;&lt;font style=&quot;font-size: 8px;&quot; face=&quot;Arial&quot;&gt;&amp;nbsp;&lt;a href=&quot;https://usage.geocat.live/catalogue/srv/eng/catalog.search#/metadata/4a561dec-b977-4bb1-a5e3-6743c8e98fcd&quot;&gt;link to dataset metadata&lt;/a&gt;&lt;/font&gt;&lt;/div&gt;&lt;/div&gt;" id="3B00jg4IUKN6mD5agiQT-111">
          <mxCell style="shape=mxgraph.bpmn.data;labelPosition=center;verticalLabelPosition=bottom;align=center;verticalAlign=top;size=15;html=1;" vertex="1" parent="1">
            <mxGeometry x="445" y="-1905" width="30" height="37" as="geometry" />
          </mxCell>
        </UserObject>
        <mxCell id="3B00jg4IUKN6mD5agiQT-112" style="edgeStyle=orthogonalEdgeStyle;rounded=0;orthogonalLoop=1;jettySize=auto;html=1;entryX=0.25;entryY=0;entryDx=0;entryDy=0;entryPerimeter=0;dashed=1;exitX=0.5;exitY=1;exitDx=0;exitDy=0;exitPerimeter=0;" edge="1" parent="1" source="3B00jg4IUKN6mD5agiQT-117" target="3B00jg4IUKN6mD5agiQT-108">
          <mxGeometry relative="1" as="geometry">
            <mxPoint x="344.0000000000001" y="-1871.5" as="sourcePoint" />
          </mxGeometry>
        </mxCell>
        <mxCell id="3B00jg4IUKN6mD5agiQT-113" style="edgeStyle=orthogonalEdgeStyle;rounded=0;orthogonalLoop=1;jettySize=auto;html=1;entryX=0.75;entryY=0;entryDx=0;entryDy=0;entryPerimeter=0;dashed=1;" edge="1" parent="1" source="3B00jg4IUKN6mD5agiQT-111" target="3B00jg4IUKN6mD5agiQT-108">
          <mxGeometry relative="1" as="geometry" />
        </mxCell>
        <mxCell id="3B00jg4IUKN6mD5agiQT-114" style="edgeStyle=orthogonalEdgeStyle;rounded=0;orthogonalLoop=1;jettySize=auto;html=1;entryX=0;entryY=0.5;entryDx=0;entryDy=0;entryPerimeter=0;exitX=0.5;exitY=0;exitDx=0;exitDy=0;exitPerimeter=0;" edge="1" parent="1" source="3B00jg4IUKN6mD5agiQT-109" target="3B00jg4IUKN6mD5agiQT-102">
          <mxGeometry relative="1" as="geometry" />
        </mxCell>
        <UserObject label="&lt;div style=&quot;line-height: 70%;&quot;&gt;&lt;div style=&quot;line-height: 70%;&quot;&gt;&lt;span style=&quot;background-color: initial; font-size: 8px;&quot;&gt;&lt;font face=&quot;Arial&quot;&gt;&lt;b style=&quot;&quot;&gt;Total solar radiation Ferrara&lt;/b&gt;&lt;/font&gt;&lt;/span&gt;&lt;span style=&quot;font-size: 8px; font-family: Arial; background-color: initial;&quot;&gt;&amp;nbsp;&lt;/span&gt;&lt;/div&gt;&lt;div style=&quot;&quot;&gt;&lt;a style=&quot;font-size: 8px; font-family: Arial; background-color: initial;&quot; href=&quot;https://usage.geocat.live/catalogue/srv/ita/catalog.search#/metadata/601806dd-3e61-40b4-8d47-6fec2e9addbe&quot;&gt;&lt;font color=&quot;#000000&quot;&gt;l&lt;/font&gt;ink to dataset metadata&lt;/a&gt;&amp;nbsp;&lt;br&gt;&lt;/div&gt;&lt;/div&gt;" id="3B00jg4IUKN6mD5agiQT-115">
          <mxCell style="shape=mxgraph.bpmn.data;labelPosition=center;verticalLabelPosition=bottom;align=center;verticalAlign=top;size=15;html=1;fillColor=#e1d5e7;strokeColor=#9673a6;" vertex="1" parent="1">
            <mxGeometry x="385.5" y="-1992" width="30" height="34" as="geometry" />
          </mxCell>
        </UserObject>
        <mxCell id="3B00jg4IUKN6mD5agiQT-116" style="edgeStyle=orthogonalEdgeStyle;rounded=0;orthogonalLoop=1;jettySize=auto;html=1;exitX=0.5;exitY=0;exitDx=0;exitDy=0;" edge="1" parent="1">
          <mxGeometry relative="1" as="geometry">
            <mxPoint x="584.7931034482758" y="-1818.1034482758623" as="targetPoint" />
            <mxPoint x="585" y="-1818" as="sourcePoint" />
          </mxGeometry>
        </mxCell>
        <UserObject label="&lt;div style=&quot;line-height: 100%; font-size: 8px;&quot;&gt;&lt;div style=&quot;line-height: 100%;&quot;&gt;DSM - 1m res&lt;/div&gt;&lt;div style=&quot;line-height: 100%;&quot;&gt;&amp;nbsp;(&lt;a href=&quot;https://usage.geocat.live/catalogue/srv/eng/catalog.search#/metadata/bada953d-51d0-468f-81e2-8d22d80c6df0&quot;&gt;link to dataset metadata&lt;/a&gt;)&lt;/div&gt;&lt;/div&gt;" id="3B00jg4IUKN6mD5agiQT-117">
          <mxCell style="shape=mxgraph.bpmn.data;labelPosition=center;verticalLabelPosition=bottom;align=center;verticalAlign=top;size=15;html=1;" vertex="1" parent="1">
            <mxGeometry x="308" y="-1898" width="30" height="30" as="geometry" />
          </mxCell>
        </UserObject>
        <mxCell id="3B00jg4IUKN6mD5agiQT-118" value="&lt;h6 style=&quot;line-height: 90%;&quot;&gt;&lt;br&gt;&lt;div style=&quot;text-align: center;&quot;&gt;&lt;span style=&quot;background-color: transparent; color: light-dark(rgb(0, 0, 0), rgb(237, 237, 237));&quot;&gt;&lt;font style=&quot;font-size: 9px;&quot;&gt;PV Surface Irradiation&lt;/font&gt;&lt;/span&gt;&lt;/div&gt;&lt;/h6&gt;&lt;h6 style=&quot;line-height: 90%;&quot;&gt;&lt;span style=&quot;font-weight: normal; font-size: 8px; background-color: transparent; color: light-dark(rgb(0, 0, 0), rgb(255, 255, 255)); line-height: 150%;&quot;&gt;Median irradiation values per roof part and parking areas&lt;/span&gt;&lt;/h6&gt;&lt;h6 style=&quot;text-align: center; line-height: 90%;&quot;&gt;&lt;font style=&quot;background-color: initial; color: light-dark(rgb(0, 0, 0), rgb(237, 237, 237)); font-size: 8px; font-weight: normal;&quot;&gt;&amp;nbsp;&lt;/font&gt;&lt;font style=&quot;background-color: initial; font-size: 6px; font-weight: normal;&quot;&gt;&lt;a href=&quot;https://usage.geocat.live/catalogue/srv/eng/catalog.search#/metadata/510510f7-c51b-465b-b8d4-ba39069d3100&quot;&gt;&lt;font style=&quot;font-size: 10px;&quot;&gt;Link to tool metadata&lt;/font&gt;&lt;/a&gt;&lt;span style=&quot;font-size: 12px;&quot;&gt;&amp;nbsp;&lt;/span&gt;&lt;/font&gt;&lt;/h6&gt;&lt;p&gt;&lt;/p&gt;" style="points=[[0.25,0,0],[0.5,0,0],[0.75,0,0],[1,0.25,0],[1,0.5,0],[1,0.75,0],[0.75,1,0],[0.5,1,0],[0.25,1,0],[0,0.75,0],[0,0.5,0],[0,0.25,0]];shape=mxgraph.bpmn.task;whiteSpace=wrap;rectStyle=rounded;size=10;html=1;container=1;expand=0;collapsible=0;taskMarker=abstract;fillColor=#f0a30a;rounded=0;align=left;verticalAlign=middle;spacing=2;fontFamily=Helvetica;fontSize=6;labelBackgroundColor=none;strokeColor=#BD7000;fontColor=#000000;" vertex="1" parent="1">
          <mxGeometry x="613" y="-1481" width="202" height="60" as="geometry" />
        </mxCell>
        <mxCell id="3B00jg4IUKN6mD5agiQT-119" style="edgeStyle=orthogonalEdgeStyle;rounded=0;orthogonalLoop=1;jettySize=auto;html=1;entryX=0;entryY=0;entryDx=7.5;entryDy=0;entryPerimeter=0;dashed=1;" edge="1" parent="1" source="3B00jg4IUKN6mD5agiQT-118" target="3B00jg4IUKN6mD5agiQT-122">
          <mxGeometry relative="1" as="geometry">
            <mxPoint x="733.0000000000002" y="-1373" as="targetPoint" />
          </mxGeometry>
        </mxCell>
        <UserObject label="&lt;div style=&quot;font-size: 8px;&quot;&gt;&lt;div&gt;&lt;span style=&quot;background-color: rgb(255, 255, 255); text-align: left; white-space: pre-wrap;&quot;&gt;&lt;font face=&quot;Helvetica&quot; style=&quot;font-size: 8px;&quot;&gt;Segmented Roofs Irradiation &lt;/font&gt;&lt;/span&gt;&lt;/div&gt;&lt;div&gt;&lt;font face=&quot;dMdXWaJS4YXUSSMsWkbs&quot; style=&quot;font-size: 8px;&quot;&gt;&lt;a href=&quot;https://usage.geocat.live/catalogue/srv/eng/catalog.search#/metadata/2087f4e7-b631-4547-a5b6-17cb2dcf4d56&quot; style=&quot;&quot;&gt;link to dataset metadata&lt;/a&gt;&lt;/font&gt;&lt;/div&gt;&lt;/div&gt;" id="3B00jg4IUKN6mD5agiQT-122">
          <mxCell style="shape=mxgraph.bpmn.data;labelPosition=center;verticalLabelPosition=bottom;align=center;verticalAlign=top;size=15;html=1;" vertex="1" parent="1">
            <mxGeometry x="605" y="-1378.5" width="30" height="34" as="geometry" />
          </mxCell>
        </UserObject>
        <mxCell id="3B00jg4IUKN6mD5agiQT-127" style="edgeStyle=orthogonalEdgeStyle;rounded=0;orthogonalLoop=1;jettySize=auto;html=1;exitX=0.5;exitY=1;exitDx=0;exitDy=0;" edge="1" parent="1">
          <mxGeometry relative="1" as="geometry">
            <mxPoint x="1070" y="-1416.5" as="sourcePoint" />
            <mxPoint x="1070" y="-1416.5" as="targetPoint" />
          </mxGeometry>
        </mxCell>
        <UserObject label="&lt;div style=&quot;line-height: 100%;&quot;&gt;&lt;div style=&quot;line-height: 100%;&quot;&gt;&lt;font face=&quot;Arial&quot;&gt;&lt;span style=&quot;font-size: 8px;&quot;&gt;Segmented Roofs&lt;/span&gt;&lt;/font&gt;&lt;/div&gt;&lt;div style=&quot;font-size: 8px; line-height: 100%;&quot;&gt;&lt;font face=&quot;Arial&quot; style=&quot;font-size: 8px;&quot;&gt;&amp;nbsp;&lt;a href=&quot;https://usage.geocat.live/catalogue/srv/ita/catalog.search#/metadata/60689a02-9b52-426e-bf90-6172f76147ea&quot;&gt;link to dataset metadata&lt;/a&gt;&lt;/font&gt;&lt;/div&gt;&lt;/div&gt;" id="3B00jg4IUKN6mD5agiQT-130">
          <mxCell style="shape=mxgraph.bpmn.data;labelPosition=center;verticalLabelPosition=bottom;align=center;verticalAlign=top;size=15;html=1;" vertex="1" parent="1">
            <mxGeometry x="391.25" y="-1581" width="30" height="32" as="geometry" />
          </mxCell>
        </UserObject>
        <mxCell id="3B00jg4IUKN6mD5agiQT-131" style="edgeStyle=orthogonalEdgeStyle;rounded=0;orthogonalLoop=1;jettySize=auto;html=1;entryX=0;entryY=0.5;entryDx=0;entryDy=0;entryPerimeter=0;dashed=1;exitX=0.5;exitY=1;exitDx=0;exitDy=0;exitPerimeter=0;" edge="1" parent="1" source="3B00jg4IUKN6mD5agiQT-130" target="3B00jg4IUKN6mD5agiQT-118">
          <mxGeometry relative="1" as="geometry">
            <mxPoint x="635" y="-1453" as="targetPoint" />
            <Array as="points">
              <mxPoint x="406" y="-1453" />
              <mxPoint x="405" y="-1453" />
              <mxPoint x="405" y="-1451" />
            </Array>
          </mxGeometry>
        </mxCell>
        <mxCell id="3B00jg4IUKN6mD5agiQT-133" style="edgeStyle=orthogonalEdgeStyle;rounded=0;orthogonalLoop=1;jettySize=auto;html=1;entryX=0.183;entryY=-0.006;entryDx=0;entryDy=0;entryPerimeter=0;" edge="1" parent="1" source="3B00jg4IUKN6mD5agiQT-102" target="3B00jg4IUKN6mD5agiQT-118">
          <mxGeometry relative="1" as="geometry">
            <mxPoint x="485" y="-2041.7714285714287" as="sourcePoint" />
            <mxPoint x="722" y="-1481" as="targetPoint" />
            <Array as="points">
              <mxPoint x="650" y="-2042" />
            </Array>
          </mxGeometry>
        </mxCell>
        <mxCell id="3B00jg4IUKN6mD5agiQT-134" style="edgeStyle=orthogonalEdgeStyle;rounded=0;orthogonalLoop=1;jettySize=auto;html=1;entryX=0.188;entryY=-0.006;entryDx=0;entryDy=0;entryPerimeter=0;" edge="1" parent="1" source="3B00jg4IUKN6mD5agiQT-108" target="3B00jg4IUKN6mD5agiQT-118">
          <mxGeometry relative="1" as="geometry">
            <mxPoint x="637" y="-1485" as="targetPoint" />
            <Array as="points">
              <mxPoint x="650" y="-1777" />
              <mxPoint x="650" y="-1481" />
            </Array>
          </mxGeometry>
        </mxCell>
        <mxCell id="3B00jg4IUKN6mD5agiQT-135" style="edgeStyle=orthogonalEdgeStyle;rounded=0;orthogonalLoop=1;jettySize=auto;html=1;dashed=1;" edge="1" parent="1" source="3B00jg4IUKN6mD5agiQT-115">
          <mxGeometry relative="1" as="geometry">
            <Array as="points">
              <mxPoint x="515" y="-1975" />
              <mxPoint x="515" y="-1475" />
              <mxPoint x="615" y="-1475" />
            </Array>
            <mxPoint x="615" y="-1475" as="targetPoint" />
          </mxGeometry>
        </mxCell>
        <mxCell id="3B00jg4IUKN6mD5agiQT-136" value="" style="endArrow=classic;html=1;rounded=0;entryX=0;entryY=0;entryDx=7.5;entryDy=0;entryPerimeter=0;dashed=1;" edge="1" parent="1" source="3B00jg4IUKN6mD5agiQT-108" target="3B00jg4IUKN6mD5agiQT-130">
          <mxGeometry width="50" height="50" relative="1" as="geometry">
            <mxPoint x="350" y="-1681" as="sourcePoint" />
            <mxPoint x="400" y="-1731" as="targetPoint" />
          </mxGeometry>
        </mxCell>
        <mxCell id="3B00jg4IUKN6mD5agiQT-137" value="&lt;h6 style=&quot;line-height: 90%; font-size: 8px;&quot;&gt;&lt;font style=&quot;font-size: 8px;&quot;&gt;&lt;span style=&quot;font-weight: 400;&quot;&gt;Overlay and add attribute from spatial layers of non-applicable areas&amp;nbsp;&lt;/span&gt;&lt;/font&gt;&lt;font color=&quot;#ff3333&quot;&gt;&lt;a href=&quot;https://usage.geocat.live/catalogue/srv/eng/catalog.search#/metadata/2dccbea6-8c1f-4402-af6d-78382cc6e8a1&quot;&gt;QGIS&lt;/a&gt;&amp;nbsp;&lt;a href=&quot;https://usage.geocat.live/catalogue/srv/eng/catalog.search#/metadata/91874db4-7086-4198-926c-d9e99a5f3024&quot;&gt;GDAL&lt;/a&gt;&lt;/font&gt;&lt;/h6&gt;&lt;p&gt;&lt;/p&gt;" style="points=[[0.25,0,0],[0.5,0,0],[0.75,0,0],[1,0.25,0],[1,0.5,0],[1,0.75,0],[0.75,1,0],[0.5,1,0],[0.25,1,0],[0,0.75,0],[0,0.5,0],[0,0.25,0]];shape=mxgraph.bpmn.task;whiteSpace=wrap;rectStyle=rounded;size=10;html=1;container=1;expand=0;collapsible=0;taskMarker=abstract;fillColor=#ff9129;" vertex="1" parent="1">
          <mxGeometry x="1252" y="-634" width="141" height="25.5" as="geometry" />
        </mxCell>
        <mxCell id="3B00jg4IUKN6mD5agiQT-138" value="" style="points=[[0.25,0.25,0],[0.5,0,0],[0.75,0.25,0],[1,0.5,0],[0.75,0.75,0],[0.5,1,0],[0.25,0.75,0],[0,0.5,0]];shape=mxgraph.bpmn.gateway2;html=1;verticalLabelPosition=bottom;labelBackgroundColor=#ffffff;verticalAlign=top;align=center;perimeter=rhombusPerimeter;outlineConnect=0;outline=none;symbol=none;gwType=parallel;" vertex="1" parent="1">
          <mxGeometry x="843" y="-966" width="50" height="50" as="geometry" />
        </mxCell>
        <mxCell id="dheAqD6gMfz--8fMyvaC-1" value="" style="edgeStyle=orthogonalEdgeStyle;rounded=0;orthogonalLoop=1;jettySize=auto;html=1;" edge="1" parent="1" source="3B00jg4IUKN6mD5agiQT-139" target="3B00jg4IUKN6mD5agiQT-150">
          <mxGeometry relative="1" as="geometry" />
        </mxCell>
        <mxCell id="3B00jg4IUKN6mD5agiQT-139" value="&lt;h6 style=&quot;line-height: 90%;&quot;&gt;&lt;font style=&quot;&quot;&gt;&lt;span style=&quot;background-color: transparent; font-size: 8px; font-weight: 400;&quot;&gt;Solar and photovoltaic panels segmentation (&lt;/span&gt;&lt;span style=&quot;font-size: 8px; font-weight: 400;&quot;&gt;Extract pv panels already installed from orthophoto) l&lt;/span&gt;&lt;/font&gt;&lt;a style=&quot;background-color: initial; font-size: 8px; font-weight: normal;&quot; href=&quot;https://usage.geocat.live/catalogue/srv/ita/catalog.search#/metadata/1d76f6d0-7934-494f-af73-952dca3b9ef1&quot;&gt;ink to tool metadata&lt;/a&gt;&lt;span style=&quot;background-color: initial; font-size: 8px; color: rgb(255, 51, 51); font-weight: normal;&quot;&gt;&amp;nbsp;&lt;/span&gt;&lt;/h6&gt;&lt;p&gt;&lt;/p&gt;" style="points=[[0.25,0,0],[0.5,0,0],[0.75,0,0],[1,0.25,0],[1,0.5,0],[1,0.75,0],[0.75,1,0],[0.5,1,0],[0.25,1,0],[0,0.75,0],[0,0.5,0],[0,0.25,0]];shape=mxgraph.bpmn.task;whiteSpace=wrap;rectStyle=rounded;size=10;html=1;container=1;expand=0;collapsible=0;taskMarker=abstract;fillColor=#ff9129;" vertex="1" parent="1">
          <mxGeometry x="983" y="-811" width="147" height="31" as="geometry" />
        </mxCell>
        <mxCell id="3B00jg4IUKN6mD5agiQT-140" value="&lt;h6 style=&quot;line-height: 90%;&quot;&gt;&lt;font style=&quot;&quot;&gt;&lt;span style=&quot;font-size: 8px; font-weight: 400;&quot;&gt;DEDA: PV road proximity (historic centre) &lt;/span&gt;&lt;/font&gt;&lt;font style=&quot;font-size: 8px;&quot; color=&quot;#ff3333&quot;&gt;&lt;a href=&quot;https://usage.geocat.live/catalogue/srv/eng/catalog.search#/metadata/6f443f6d-c283-40c6-8c97-8047934f2cd5&quot;&gt;Link to tool metadata&lt;/a&gt;&amp;nbsp;&lt;/font&gt;&lt;/h6&gt;&lt;p&gt;&lt;/p&gt;" style="points=[[0.25,0,0],[0.5,0,0],[0.75,0,0],[1,0.25,0],[1,0.5,0],[1,0.75,0],[0.75,1,0],[0.5,1,0],[0.25,1,0],[0,0.75,0],[0,0.5,0],[0,0.25,0]];shape=mxgraph.bpmn.task;whiteSpace=wrap;rectStyle=rounded;size=10;html=1;container=1;expand=0;collapsible=0;taskMarker=abstract;fillColor=#ff9129;" vertex="1" parent="1">
          <mxGeometry x="983" y="-1111" width="141" height="25.5" as="geometry" />
        </mxCell>
        <UserObject label="&lt;div style=&quot;&quot;&gt;&lt;div style=&quot;&quot;&gt;&lt;font face=&quot;Arial&quot;&gt;&lt;span style=&quot;font-size: 8px;&quot;&gt;OSM Ferrara road network&lt;/span&gt;&lt;/font&gt;&lt;/div&gt;&lt;div style=&quot;font-size: 8px;&quot;&gt;&lt;font face=&quot;Arial&quot; style=&quot;font-size: 8px;&quot;&gt;&lt;a href=&quot;https://usage.geocat.live/catalogue/srv/ita/catalog.search#/metadata/7909cbcf-8f81-44ee-8908-30a206398d67&quot;&gt;link to dataset metadata&lt;/a&gt;&lt;/font&gt;&lt;/div&gt;&lt;/div&gt;" id="3B00jg4IUKN6mD5agiQT-141">
          <mxCell style="shape=mxgraph.bpmn.data;labelPosition=center;verticalLabelPosition=bottom;align=center;verticalAlign=top;size=15;html=1;" vertex="1" parent="1">
            <mxGeometry x="1125.5" y="-1232" width="30" height="34" as="geometry" />
          </mxCell>
        </UserObject>
        <mxCell id="3B00jg4IUKN6mD5agiQT-144" style="edgeStyle=orthogonalEdgeStyle;rounded=0;orthogonalLoop=1;jettySize=auto;html=1;entryX=0;entryY=0.5;entryDx=0;entryDy=0;entryPerimeter=0;exitX=0.5;exitY=0;exitDx=0;exitDy=0;exitPerimeter=0;" edge="1" parent="1" source="3B00jg4IUKN6mD5agiQT-138" target="3B00jg4IUKN6mD5agiQT-140">
          <mxGeometry relative="1" as="geometry" />
        </mxCell>
        <mxCell id="3B00jg4IUKN6mD5agiQT-145" style="edgeStyle=orthogonalEdgeStyle;rounded=0;orthogonalLoop=1;jettySize=auto;html=1;entryX=0.9;entryY=0.025;entryDx=0;entryDy=0;entryPerimeter=0;dashed=1;exitX=0.5;exitY=1;exitDx=0;exitDy=0;exitPerimeter=0;" edge="1" parent="1" source="3B00jg4IUKN6mD5agiQT-141" target="3B00jg4IUKN6mD5agiQT-140">
          <mxGeometry relative="1" as="geometry">
            <mxPoint x="1115" y="-1111" as="targetPoint" />
          </mxGeometry>
        </mxCell>
        <mxCell id="3B00jg4IUKN6mD5agiQT-146" value="&lt;div style=&quot;&quot;&gt;&lt;h6 style=&quot;&quot;&gt;&lt;span style=&quot;font-size: 6px; font-weight: 400;&quot;&gt;Vector map of non suitable roof pitches based on their adjacency to specific roads and located in the historical center&lt;/span&gt;&lt;br&gt;&lt;/h6&gt;&lt;/div&gt;" style="text;html=1;strokeColor=none;fillColor=#d5e8d4;align=center;verticalAlign=middle;rounded=0;whiteSpace=wrap;spacing=2;fontSize=6;labelBackgroundColor=none;" vertex="1" parent="1">
          <mxGeometry x="1005" y="-964" width="127" height="29.75" as="geometry" />
        </mxCell>
        <mxCell id="yt7fV-2J0EI8xndOPAcs-23" value="" style="edgeStyle=orthogonalEdgeStyle;rounded=0;orthogonalLoop=1;jettySize=auto;html=1;" edge="1" parent="1" source="3B00jg4IUKN6mD5agiQT-147" target="3B00jg4IUKN6mD5agiQT-146">
          <mxGeometry relative="1" as="geometry" />
        </mxCell>
        <UserObject label="&lt;div style=&quot;font-size: 9px;&quot;&gt;&lt;div style=&quot;&quot;&gt;&lt;span style=&quot;background-color: rgb(255, 255, 255); text-align: left; white-space: pre-wrap;&quot;&gt;&lt;font face=&quot;Helvetica&quot; style=&quot;font-size: 9px;&quot;&gt;Segmented Roofs Irradiation in historic centre&lt;/font&gt;&lt;/span&gt;&lt;span style=&quot;background-color: rgb(255, 255, 255); font-family: docs-Calibri; text-align: left; white-space: pre-wrap;&quot;&gt; &lt;/span&gt;&lt;span style=&quot;font-family: Arial; background-color: initial;&quot;&gt;&amp;nbsp;&lt;/span&gt;&lt;/div&gt;&lt;div style=&quot;&quot;&gt;&lt;a href=&quot;https://usage.geocat.live/catalogue/srv/ita/catalog.search#/metadata/1a3f1915-039d-478f-91f6-bedeea62bbd0&quot; style=&quot;font-family: Arial; background-color: initial;&quot;&gt;link to dataset metadata&lt;/a&gt;&lt;br&gt;&lt;/div&gt;&lt;/div&gt;" id="3B00jg4IUKN6mD5agiQT-147">
          <mxCell style="shape=mxgraph.bpmn.data;labelPosition=center;verticalLabelPosition=bottom;align=center;verticalAlign=top;size=15;html=1;" vertex="1" parent="1">
            <mxGeometry x="1045.5" y="-1058.75" width="30" height="34" as="geometry" />
          </mxCell>
        </UserObject>
        <mxCell id="3B00jg4IUKN6mD5agiQT-148" style="edgeStyle=orthogonalEdgeStyle;rounded=0;orthogonalLoop=1;jettySize=auto;html=1;entryX=0;entryY=0;entryDx=7.5;entryDy=0;entryPerimeter=0;dashed=1;" edge="1" parent="1" source="3B00jg4IUKN6mD5agiQT-140" target="3B00jg4IUKN6mD5agiQT-147">
          <mxGeometry relative="1" as="geometry" />
        </mxCell>
        <mxCell id="3B00jg4IUKN6mD5agiQT-149" style="edgeStyle=orthogonalEdgeStyle;rounded=0;orthogonalLoop=1;jettySize=auto;html=1;entryX=0.224;entryY=-0.003;entryDx=0;entryDy=0;entryPerimeter=0;exitX=0;exitY=0;exitDx=30;exitDy=24.5;exitPerimeter=0;dashed=1;" edge="1" parent="1" source="3B00jg4IUKN6mD5agiQT-147" target="3B00jg4IUKN6mD5agiQT-137">
          <mxGeometry relative="1" as="geometry">
            <mxPoint x="1044.5" y="-1035.44" as="sourcePoint" />
            <mxPoint x="1236" y="-704.565" as="targetPoint" />
          </mxGeometry>
        </mxCell>
        <UserObject label="&lt;div style=&quot;&quot;&gt;&lt;div style=&quot;&quot;&gt;&lt;font face=&quot;Arial&quot;&gt;&lt;span style=&quot;font-size: 8px;&quot;&gt;Orthophoto 2022 10cm resolution&lt;/span&gt;&lt;/font&gt;&lt;br&gt;&lt;/div&gt;&lt;div style=&quot;font-size: 8px;&quot;&gt;&lt;font style=&quot;font-size: 8px;&quot; face=&quot;Arial&quot;&gt;&amp;nbsp;&lt;a href=&quot;https://usage.geocat.live/catalogue/srv/eng/catalog.search#/metadata/f4e9f405-5fbb-4e82-af15-d8045c14c89a&quot;&gt;link to dataset metadata&lt;/a&gt;&lt;/font&gt;&lt;/div&gt;&lt;/div&gt;" id="3B00jg4IUKN6mD5agiQT-150">
          <mxCell style="shape=mxgraph.bpmn.data;labelPosition=center;verticalLabelPosition=bottom;align=center;verticalAlign=top;size=15;html=1;" vertex="1" parent="1">
            <mxGeometry x="1038.5" y="-901" width="30" height="34" as="geometry" />
          </mxCell>
        </UserObject>
        <mxCell id="3B00jg4IUKN6mD5agiQT-151" style="edgeStyle=orthogonalEdgeStyle;rounded=0;orthogonalLoop=1;jettySize=auto;html=1;entryX=0.5;entryY=0;entryDx=0;entryDy=0;entryPerimeter=0;dashed=1;" edge="1" parent="1" source="3B00jg4IUKN6mD5agiQT-150" target="3B00jg4IUKN6mD5agiQT-139">
          <mxGeometry relative="1" as="geometry" />
        </mxCell>
        <UserObject label="&lt;div style=&quot;&quot;&gt;&lt;div style=&quot;&quot;&gt;&lt;span style=&quot;background-color: initial; font-size: 8px;&quot;&gt;&lt;font face=&quot;Arial&quot;&gt;Estimate of photovoltaic panels&lt;/font&gt;&lt;/span&gt;&lt;/div&gt;&lt;div style=&quot;&quot;&gt;&lt;font face=&quot;Arial&quot;&gt;&lt;span style=&quot;font-size: 8px;&quot;&gt;(non suitable areas)&lt;/span&gt;&lt;/font&gt;&lt;br&gt;&lt;/div&gt;&lt;div style=&quot;font-size: 8px;&quot;&gt;&lt;font face=&quot;Arial&quot; style=&quot;font-size: 8px;&quot;&gt;&amp;nbsp;&lt;a href=&quot;https://usage.geocat.live/catalogue/srv/ita/catalog.search#/metadata/9d7692d5-a22f-4e9d-80aa-8fea42d2e67e&quot;&gt;link to dataset metadata&lt;/a&gt;&lt;/font&gt;&lt;/div&gt;&lt;/div&gt;" id="3B00jg4IUKN6mD5agiQT-152">
          <mxCell style="shape=mxgraph.bpmn.data;labelPosition=center;verticalLabelPosition=bottom;align=center;verticalAlign=top;size=15;html=1;" vertex="1" parent="1">
            <mxGeometry x="1045.5" y="-752" width="30" height="34" as="geometry" />
          </mxCell>
        </UserObject>
        <mxCell id="3B00jg4IUKN6mD5agiQT-153" style="edgeStyle=orthogonalEdgeStyle;rounded=0;orthogonalLoop=1;jettySize=auto;html=1;entryX=0;entryY=0;entryDx=7.5;entryDy=0;entryPerimeter=0;dashed=1;" edge="1" parent="1" source="3B00jg4IUKN6mD5agiQT-139" target="3B00jg4IUKN6mD5agiQT-152">
          <mxGeometry relative="1" as="geometry">
            <Array as="points">
              <mxPoint x="1053" y="-770" />
              <mxPoint x="1053" y="-770" />
            </Array>
          </mxGeometry>
        </mxCell>
        <mxCell id="3B00jg4IUKN6mD5agiQT-154" style="edgeStyle=orthogonalEdgeStyle;rounded=0;orthogonalLoop=1;jettySize=auto;html=1;entryX=0;entryY=0.5;entryDx=0;entryDy=0;entryPerimeter=0;dashed=1;" edge="1" parent="1" source="3B00jg4IUKN6mD5agiQT-152" target="3B00jg4IUKN6mD5agiQT-137">
          <mxGeometry relative="1" as="geometry" />
        </mxCell>
        <mxCell id="3B00jg4IUKN6mD5agiQT-156" value="&lt;div style=&quot;&quot;&gt;protected buildings&lt;br&gt;&lt;/div&gt;" style="text;html=1;strokeColor=none;fillColor=#d5e8d4;align=center;verticalAlign=middle;rounded=0;whiteSpace=wrap;spacing=2;fontSize=6;labelBackgroundColor=none;" vertex="1" parent="1">
          <mxGeometry x="1495" y="-701" width="68" height="20" as="geometry" />
        </mxCell>
        <mxCell id="3B00jg4IUKN6mD5agiQT-157" style="edgeStyle=orthogonalEdgeStyle;rounded=0;orthogonalLoop=1;jettySize=auto;html=1;entryX=0.714;entryY=0.024;entryDx=0;entryDy=0;entryPerimeter=0;dashed=1;exitX=0.5;exitY=1;exitDx=0;exitDy=0;exitPerimeter=0;" edge="1" parent="1" source="3B00jg4IUKN6mD5agiQT-155" target="3B00jg4IUKN6mD5agiQT-137">
          <mxGeometry relative="1" as="geometry">
            <Array as="points">
              <mxPoint x="1345" y="-671" />
              <mxPoint x="1353" y="-671" />
            </Array>
            <mxPoint x="1352.75" y="-634" as="targetPoint" />
          </mxGeometry>
        </mxCell>
        <mxCell id="3B00jg4IUKN6mD5agiQT-158" style="edgeStyle=orthogonalEdgeStyle;rounded=0;orthogonalLoop=1;jettySize=auto;html=1;entryX=0;entryY=0.5;entryDx=0;entryDy=0;entryPerimeter=0;exitX=0.5;exitY=1;exitDx=0;exitDy=0;exitPerimeter=0;" edge="1" parent="1" source="3B00jg4IUKN6mD5agiQT-138" target="3B00jg4IUKN6mD5agiQT-139">
          <mxGeometry relative="1" as="geometry" />
        </mxCell>
        <mxCell id="3B00jg4IUKN6mD5agiQT-159" value="&lt;div style=&quot;&quot;&gt;&lt;h6 style=&quot;&quot;&gt;&lt;span style=&quot;font-size: 6px; font-weight: 400;&quot;&gt;Vector layer containing the pitches or pitches fraction and other potential candidate areas in the city with associated received irradiation (KWh) per year, per m2? On which it’s possible to install solar panels&lt;/span&gt;&lt;br&gt;&lt;/h6&gt;&lt;/div&gt;" style="text;html=1;strokeColor=none;fillColor=#d5e8d4;align=center;verticalAlign=middle;rounded=0;whiteSpace=wrap;spacing=2;fontSize=6;labelBackgroundColor=none;" vertex="1" parent="1">
          <mxGeometry x="1132" y="-521" width="149" height="29.75" as="geometry" />
        </mxCell>
        <UserObject label="&lt;div style=&quot;&quot;&gt;&lt;div style=&quot;&quot;&gt;&lt;span style=&quot;font-family: Arial; font-size: 8px; background-color: rgb(255, 255, 255);&quot;&gt;Segmented roofs solar potential (eligible for PV)&lt;/span&gt;&lt;/div&gt;&lt;div style=&quot;font-size: 8px;&quot;&gt;&lt;font style=&quot;font-size: 8px;&quot; face=&quot;Arial&quot;&gt;&lt;a href=&quot;https://usage.geocat.live/catalogue/srv/eng/catalog.search#/metadata/22d01fe4-c3b3-4b50-a01b-1ee69b212c23&quot;&gt;link to dataset metadata&lt;/a&gt;&lt;/font&gt;&lt;/div&gt;&lt;/div&gt;" id="3B00jg4IUKN6mD5agiQT-160">
          <mxCell style="shape=mxgraph.bpmn.data;labelPosition=center;verticalLabelPosition=bottom;align=center;verticalAlign=top;size=15;html=1;" vertex="1" parent="1">
            <mxGeometry x="1315.5" y="-581" width="30" height="34" as="geometry" />
          </mxCell>
        </UserObject>
        <mxCell id="3B00jg4IUKN6mD5agiQT-161" style="edgeStyle=orthogonalEdgeStyle;rounded=0;orthogonalLoop=1;jettySize=auto;html=1;entryX=0;entryY=0;entryDx=7.5;entryDy=0;entryPerimeter=0;dashed=1;" edge="1" parent="1" source="3B00jg4IUKN6mD5agiQT-137" target="3B00jg4IUKN6mD5agiQT-160">
          <mxGeometry relative="1" as="geometry" />
        </mxCell>
        <mxCell id="3B00jg4IUKN6mD5agiQT-162" style="edgeStyle=orthogonalEdgeStyle;rounded=0;orthogonalLoop=1;jettySize=auto;html=1;entryX=0.5;entryY=0;entryDx=0;entryDy=0;entryPerimeter=0;" edge="1" parent="1" source="3B00jg4IUKN6mD5agiQT-140" target="3B00jg4IUKN6mD5agiQT-137">
          <mxGeometry relative="1" as="geometry" />
        </mxCell>
        <mxCell id="3B00jg4IUKN6mD5agiQT-163" style="edgeStyle=orthogonalEdgeStyle;rounded=0;orthogonalLoop=1;jettySize=auto;html=1;entryX=0.5;entryY=0;entryDx=0;entryDy=0;entryPerimeter=0;" edge="1" parent="1" source="3B00jg4IUKN6mD5agiQT-139" target="3B00jg4IUKN6mD5agiQT-137">
          <mxGeometry relative="1" as="geometry" />
        </mxCell>
        <UserObject label="&lt;div style=&quot;&quot;&gt;&lt;div style=&quot;&quot;&gt;&lt;span style=&quot;background-color: initial;&quot;&gt;&lt;span style=&quot;font-size: 7px;&quot;&gt;Listed buildings (&lt;/span&gt;&lt;font style=&quot;font-size: 7px;&quot;&gt;Classe_int = 1&lt;/font&gt;&lt;span style=&quot;font-size: 7px;&quot;&gt;)&lt;/span&gt;&lt;/span&gt;&lt;/div&gt;&lt;div style=&quot;font-size: 7px;&quot;&gt;&lt;a href=&quot;https://usage.geocat.live/catalogue/srv/ita/catalog.search#/metadata/a69ad095-02a5-40d1-a10c-41fb7a650d66&quot; style=&quot;background-color: initial; font-family: Arial;&quot;&gt;link to dataset metadata&lt;/a&gt;&lt;/div&gt;&lt;/div&gt;" id="3B00jg4IUKN6mD5agiQT-164">
          <mxCell style="shape=mxgraph.bpmn.data;labelPosition=center;verticalLabelPosition=bottom;align=center;verticalAlign=top;size=15;html=1;" vertex="1" parent="1">
            <mxGeometry x="1475" y="-777" width="30" height="34" as="geometry" />
          </mxCell>
        </UserObject>
        <UserObject label="&lt;div style=&quot;&quot;&gt;&lt;div style=&quot;&quot;&gt;&lt;font face=&quot;Arial&quot;&gt;&lt;span style=&quot;font-size: 8px;&quot;&gt;Area of interest&lt;/span&gt;&lt;/font&gt;&lt;br&gt;&lt;/div&gt;&lt;div style=&quot;font-size: 8px;&quot;&gt;&lt;font face=&quot;Arial&quot; style=&quot;font-size: 8px;&quot;&gt;&lt;a href=&quot;https://usage.geocat.live/catalogue/srv/ita/catalog.search#/metadata/de281376-ccbb-4703-bff6-716310e64c24&quot;&gt;link to dataset metadata&lt;/a&gt;&lt;/font&gt;&lt;/div&gt;&lt;/div&gt;" id="3B00jg4IUKN6mD5agiQT-169">
          <mxCell style="shape=mxgraph.bpmn.data;labelPosition=center;verticalLabelPosition=bottom;align=center;verticalAlign=top;size=15;html=1;" vertex="1" parent="1">
            <mxGeometry x="1025" y="-1232" width="30" height="34" as="geometry" />
          </mxCell>
        </UserObject>
        <mxCell id="3B00jg4IUKN6mD5agiQT-170" style="edgeStyle=orthogonalEdgeStyle;rounded=0;orthogonalLoop=1;jettySize=auto;html=1;entryX=0.2;entryY=0.013;entryDx=0;entryDy=0;entryPerimeter=0;dashed=1;exitX=0.5;exitY=1;exitDx=0;exitDy=0;exitPerimeter=0;" edge="1" parent="1" source="3B00jg4IUKN6mD5agiQT-169" target="3B00jg4IUKN6mD5agiQT-140">
          <mxGeometry relative="1" as="geometry">
            <mxPoint x="1015" y="-1111" as="targetPoint" />
          </mxGeometry>
        </mxCell>
        <mxCell id="3B00jg4IUKN6mD5agiQT-171" value="&lt;h6 style=&quot;line-height: 90%;&quot;&gt;&lt;font style=&quot;&quot;&gt;&lt;span style=&quot;font-size: 8px; font-weight: 400;&quot;&gt;GIS application (qgis, etc..) to validate the dataset in input.&amp;nbsp; Well known and pubblicly available application&amp;nbsp;&amp;nbsp;&lt;/span&gt;&lt;/font&gt;&lt;font style=&quot;font-size: 8px;&quot; color=&quot;#ff3333&quot;&gt;&lt;a href=&quot;https://usage.geocat.live/catalogue/srv/eng/catalog.search#/metadata/2dccbea6-8c1f-4402-af6d-78382cc6e8a1&quot;&gt;Link to QGis&amp;nbsp;&lt;/a&gt; &lt;br&gt;&lt;/font&gt;&lt;/h6&gt;&lt;p&gt;&lt;/p&gt;" style="points=[[0.25,0,0],[0.5,0,0],[0.75,0,0],[1,0.25,0],[1,0.5,0],[1,0.75,0],[0.75,1,0],[0.5,1,0],[0.25,1,0],[0,0.75,0],[0,0.5,0],[0,0.25,0]];shape=mxgraph.bpmn.task;whiteSpace=wrap;rectStyle=rounded;size=10;html=1;container=1;expand=0;collapsible=0;taskMarker=abstract;fillColor=#ff9129;" vertex="1" parent="1">
          <mxGeometry x="1405" y="-441" width="140" height="50" as="geometry" />
        </mxCell>
        <mxCell id="3B00jg4IUKN6mD5agiQT-172" value="&lt;div style=&quot;&quot;&gt;&lt;h6 style=&quot;&quot;&gt;&lt;span style=&quot;font-size: 6px; font-weight: 400;&quot;&gt;(Manually) validated vectorial layer containing the pitches or pitches fraction and other potential candidate areas in the city with associated received irradiation (KWh) per year, per m2? On which it’s possible to install solar panels&lt;/span&gt;&lt;br&gt;&lt;/h6&gt;&lt;/div&gt;" style="text;html=1;strokeColor=none;fillColor=#d5e8d4;align=center;verticalAlign=middle;rounded=0;whiteSpace=wrap;spacing=2;fontSize=6;labelBackgroundColor=none;" vertex="1" parent="1">
          <mxGeometry x="1251.5" y="-291" width="167" height="29.75" as="geometry" />
        </mxCell>
        <UserObject label="&lt;div style=&quot;&quot;&gt;&lt;div style=&quot;&quot;&gt;&lt;span style=&quot;background-color: rgb(255, 255, 255); text-align: left; white-space: pre-wrap;&quot;&gt;&lt;span style=&quot;font-family: Arial; font-size: 8px; background-color: transparent; color: light-dark(rgb(0, 0, 0), rgb(255, 255, 255)); text-align: center; white-space: nowrap;&quot;&gt;Segmented roofs solar potential&lt;/span&gt;&lt;font style=&quot;font-size: 8px;&quot; face=&quot;Helvetica&quot;&gt; (&lt;b&gt;validated&lt;/b&gt;&lt;/font&gt;&lt;/span&gt;&lt;span style=&quot;font-size: 8px; font-family: Arial; background-color: initial;&quot;&gt;)&amp;nbsp;&lt;/span&gt;&lt;span style=&quot;font-size: 8px; font-family: Arial; background-color: initial;&quot;&gt;&amp;nbsp;&lt;/span&gt;&lt;a style=&quot;font-size: 8px; font-family: Arial; background-color: initial;&quot; href=&quot;https://usage.geocat.live/catalogue/srv/eng/catalog.search#/metadata/22d01fe4-c3b3-4b50-a01b-1ee69b212c23&quot;&gt;link to dataset metadata&lt;/a&gt;&lt;br&gt;&lt;/div&gt;&lt;/div&gt;" id="3B00jg4IUKN6mD5agiQT-173">
          <mxCell style="shape=mxgraph.bpmn.data;labelPosition=center;verticalLabelPosition=bottom;align=center;verticalAlign=top;size=15;html=1;fillColor=#e1d5e7;strokeColor=#9673a6;" vertex="1" parent="1">
            <mxGeometry x="1467.5" y="-352" width="30" height="34" as="geometry" />
          </mxCell>
        </UserObject>
        <mxCell id="3B00jg4IUKN6mD5agiQT-174" style="edgeStyle=orthogonalEdgeStyle;rounded=0;orthogonalLoop=1;jettySize=auto;html=1;entryX=0;entryY=0;entryDx=7.5;entryDy=0;entryPerimeter=0;dashed=1;" edge="1" parent="1" source="3B00jg4IUKN6mD5agiQT-171" target="3B00jg4IUKN6mD5agiQT-173">
          <mxGeometry relative="1" as="geometry" />
        </mxCell>
        <mxCell id="3B00jg4IUKN6mD5agiQT-189" style="edgeStyle=orthogonalEdgeStyle;rounded=0;orthogonalLoop=1;jettySize=auto;html=1;entryX=0.25;entryY=0;entryDx=0;entryDy=0;entryPerimeter=0;dashed=1;" edge="1" parent="1" source="3B00jg4IUKN6mD5agiQT-160" target="3B00jg4IUKN6mD5agiQT-171">
          <mxGeometry relative="1" as="geometry" />
        </mxCell>
        <mxCell id="3B00jg4IUKN6mD5agiQT-192" style="edgeStyle=orthogonalEdgeStyle;rounded=0;orthogonalLoop=1;jettySize=auto;html=1;dashed=1;entryX=0;entryY=0.25;entryDx=0;entryDy=0;entryPerimeter=0;" edge="1" parent="1" source="3B00jg4IUKN6mD5agiQT-173" target="3B00jg4IUKN6mD5agiQT-184">
          <mxGeometry relative="1" as="geometry">
            <mxPoint x="1620" y="433.3333333333333" as="targetPoint" />
            <Array as="points">
              <mxPoint x="1483" y="-240" />
              <mxPoint x="1483" y="439" />
            </Array>
          </mxGeometry>
        </mxCell>
        <mxCell id="3B00jg4IUKN6mD5agiQT-200" value="" style="edgeStyle=orthogonalEdgeStyle;rounded=0;orthogonalLoop=1;jettySize=auto;html=1;dashed=1;exitX=0.5;exitY=1;exitDx=0;exitDy=0;exitPerimeter=0;" edge="1" parent="1" source="3B00jg4IUKN6mD5agiQT-122" target="3B00jg4IUKN6mD5agiQT-138">
          <mxGeometry relative="1" as="geometry">
            <Array as="points">
              <mxPoint x="620" y="-940" />
            </Array>
            <mxPoint x="690" y="-1112" as="targetPoint" />
          </mxGeometry>
        </mxCell>
        <mxCell id="MxaMl1WZHZWP-qelYsli-4" value="" style="edgeStyle=segmentEdgeStyle;endArrow=classic;html=1;curved=0;rounded=0;endSize=8;startSize=8;exitX=0.5;exitY=1;exitDx=0;exitDy=0;exitPerimeter=0;entryX=0;entryY=0.25;entryDx=0;entryDy=0;entryPerimeter=0;dashed=1;" edge="1" parent="1" source="3B00jg4IUKN6mD5agiQT-167" target="3B00jg4IUKN6mD5agiQT-137">
          <mxGeometry width="50" height="50" relative="1" as="geometry">
            <mxPoint x="1640" y="-440" as="sourcePoint" />
            <mxPoint x="1242" y="-630" as="targetPoint" />
            <Array as="points">
              <mxPoint x="1242" y="-660" />
              <mxPoint x="1252" y="-660" />
            </Array>
          </mxGeometry>
        </mxCell>
        <mxCell id="MxaMl1WZHZWP-qelYsli-5" value="" style="edgeStyle=segmentEdgeStyle;endArrow=classic;html=1;curved=0;rounded=0;endSize=8;startSize=8;exitX=0.5;exitY=1;exitDx=0;exitDy=0;exitPerimeter=0;entryX=0.98;entryY=0.271;entryDx=0;entryDy=0;entryPerimeter=0;dashed=1;" edge="1" parent="1" source="3B00jg4IUKN6mD5agiQT-164" target="3B00jg4IUKN6mD5agiQT-137">
          <mxGeometry width="50" height="50" relative="1" as="geometry">
            <mxPoint x="1380" y="-640" as="sourcePoint" />
            <mxPoint x="1430" y="-690" as="targetPoint" />
            <Array as="points">
              <mxPoint x="1490" y="-627" />
            </Array>
          </mxGeometry>
        </mxCell>
        <mxCell id="MxaMl1WZHZWP-qelYsli-7" value="" style="edgeStyle=segmentEdgeStyle;endArrow=classic;html=1;curved=0;rounded=0;endSize=8;startSize=8;entryX=0;entryY=0;entryDx=7.5;entryDy=0;entryPerimeter=0;exitX=0.773;exitY=1.027;exitDx=0;exitDy=0;exitPerimeter=0;dashed=1;" edge="1" parent="1" source="3B00jg4IUKN6mD5agiQT-118" target="3B00jg4IUKN6mD5agiQT-129">
          <mxGeometry width="50" height="50" relative="1" as="geometry">
            <mxPoint x="860" y="-1250" as="sourcePoint" />
            <mxPoint x="910" y="-1300" as="targetPoint" />
          </mxGeometry>
        </mxCell>
        <mxCell id="VpxlwrwxI7D49cAm3FrH-3" value="" style="edgeStyle=segmentEdgeStyle;endArrow=classic;html=1;curved=0;rounded=0;endSize=8;startSize=8;exitX=0.5;exitY=1;exitDx=0;exitDy=0;exitPerimeter=0;entryX=1.001;entryY=0.35;entryDx=0;entryDy=0;entryPerimeter=0;dashed=1;" edge="1" parent="1" source="AYdhGK95s8Jrub2KOEHg-4" target="3B00jg4IUKN6mD5agiQT-118">
          <mxGeometry width="50" height="50" relative="1" as="geometry">
            <mxPoint x="900" y="-1500" as="sourcePoint" />
            <mxPoint x="820" y="-1460" as="targetPoint" />
            <Array as="points">
              <mxPoint x="897" y="-1460" />
            </Array>
          </mxGeometry>
        </mxCell>
        <mxCell id="VpxlwrwxI7D49cAm3FrH-4" style="edgeStyle=orthogonalEdgeStyle;rounded=0;orthogonalLoop=1;jettySize=auto;html=1;dashed=1;exitX=0.5;exitY=1;exitDx=0;exitDy=0;exitPerimeter=0;" edge="1" parent="1" source="3B00jg4IUKN6mD5agiQT-173">
          <mxGeometry relative="1" as="geometry">
            <mxPoint x="2170" y="190" as="targetPoint" />
            <Array as="points">
              <mxPoint x="1482" y="190" />
            </Array>
            <mxPoint x="1492" y="-308" as="sourcePoint" />
          </mxGeometry>
        </mxCell>
      </root>
    </mxGraphModel>
  </diagram>
</mxfile>
